<mxfile host="app.diagrams.net" agent="Mozilla/5.0 (Windows NT 10.0; Win64; x64) AppleWebKit/537.36 (KHTML, like Gecko) Chrome/131.0.0.0 Safari/537.36" version="25.0.3">
  <diagram name="Seite-1" id="OwF_9deUwSANCLZHSvKp">
    <mxGraphModel dx="1050" dy="530" grid="1" gridSize="10" guides="1" tooltips="1" connect="1" arrows="1" fold="1" page="1" pageScale="1" pageWidth="827" pageHeight="1169" math="0" shadow="0">
      <root>
        <mxCell id="0" />
        <mxCell id="1" parent="0" />
        <mxCell id="xr6JuNUHZO95qO_lHV2o-1" value="Data Annotation" style="swimlane;whiteSpace=wrap;html=1;" parent="1" vertex="1">
          <mxGeometry x="80" y="210" width="560" height="500" as="geometry" />
        </mxCell>
        <mxCell id="xr6JuNUHZO95qO_lHV2o-10" style="edgeStyle=orthogonalEdgeStyle;rounded=0;orthogonalLoop=1;jettySize=auto;html=1;exitX=0;exitY=0.5;exitDx=0;exitDy=0;entryX=0.5;entryY=0;entryDx=0;entryDy=0;" parent="xr6JuNUHZO95qO_lHV2o-1" source="xr6JuNUHZO95qO_lHV2o-3" target="xr6JuNUHZO95qO_lHV2o-9" edge="1">
          <mxGeometry relative="1" as="geometry" />
        </mxCell>
        <mxCell id="xr6JuNUHZO95qO_lHV2o-3" value="Objaverse.xl" style="shape=datastore;whiteSpace=wrap;html=1;" parent="xr6JuNUHZO95qO_lHV2o-1" vertex="1">
          <mxGeometry x="235" y="50" width="75" height="60" as="geometry" />
        </mxCell>
        <mxCell id="xr6JuNUHZO95qO_lHV2o-13" value="" style="edgeStyle=orthogonalEdgeStyle;rounded=0;orthogonalLoop=1;jettySize=auto;html=1;entryX=0.5;entryY=0;entryDx=0;entryDy=0;" parent="xr6JuNUHZO95qO_lHV2o-1" source="xr6JuNUHZO95qO_lHV2o-9" target="xr6JuNUHZO95qO_lHV2o-21" edge="1">
          <mxGeometry relative="1" as="geometry">
            <mxPoint x="110" y="270" as="targetPoint" />
          </mxGeometry>
        </mxCell>
        <mxCell id="xr6JuNUHZO95qO_lHV2o-9" value="Create images of different views" style="rounded=0;whiteSpace=wrap;html=1;" parent="xr6JuNUHZO95qO_lHV2o-1" vertex="1">
          <mxGeometry x="50" y="130" width="120" height="60" as="geometry" />
        </mxCell>
        <mxCell id="xr6JuNUHZO95qO_lHV2o-21" value="DeepSeek-R1-Distill-Qwen-32B" style="whiteSpace=wrap;html=1;rounded=0;" parent="xr6JuNUHZO95qO_lHV2o-1" vertex="1">
          <mxGeometry x="210" y="200" width="120" height="60" as="geometry" />
        </mxCell>
        <mxCell id="xr6JuNUHZO95qO_lHV2o-23" value="Beginner level CAD instructions" style="shape=card;whiteSpace=wrap;html=1;" parent="xr6JuNUHZO95qO_lHV2o-1" vertex="1">
          <mxGeometry x="110" y="340" width="80" height="100" as="geometry" />
        </mxCell>
        <mxCell id="xr6JuNUHZO95qO_lHV2o-24" value="Intermediate level CAD instructions" style="shape=card;whiteSpace=wrap;html=1;" parent="xr6JuNUHZO95qO_lHV2o-1" vertex="1">
          <mxGeometry x="320" y="340" width="80" height="100" as="geometry" />
        </mxCell>
        <mxCell id="xr6JuNUHZO95qO_lHV2o-26" style="edgeStyle=orthogonalEdgeStyle;rounded=0;orthogonalLoop=1;jettySize=auto;html=1;exitX=0.5;exitY=1;exitDx=0;exitDy=0;entryX=0;entryY=0;entryDx=55;entryDy=0;entryPerimeter=0;" parent="xr6JuNUHZO95qO_lHV2o-1" source="xr6JuNUHZO95qO_lHV2o-21" target="xr6JuNUHZO95qO_lHV2o-23" edge="1">
          <mxGeometry relative="1" as="geometry" />
        </mxCell>
        <mxCell id="xr6JuNUHZO95qO_lHV2o-27" style="edgeStyle=orthogonalEdgeStyle;rounded=0;orthogonalLoop=1;jettySize=auto;html=1;exitX=0.5;exitY=1;exitDx=0;exitDy=0;entryX=0;entryY=0;entryDx=55;entryDy=0;entryPerimeter=0;" parent="xr6JuNUHZO95qO_lHV2o-1" source="xr6JuNUHZO95qO_lHV2o-21" target="xr6JuNUHZO95qO_lHV2o-24" edge="1">
          <mxGeometry relative="1" as="geometry" />
        </mxCell>
        <mxCell id="xr6JuNUHZO95qO_lHV2o-11" value="3d models (.stl, .ply)" style="text;html=1;align=center;verticalAlign=middle;resizable=0;points=[];autosize=1;strokeColor=none;fillColor=none;" parent="xr6JuNUHZO95qO_lHV2o-1" vertex="1">
          <mxGeometry x="80" y="50" width="130" height="30" as="geometry" />
        </mxCell>
        <mxCell id="kidmjEK7hoNwNIoEuFBd-2" style="edgeStyle=orthogonalEdgeStyle;rounded=0;orthogonalLoop=1;jettySize=auto;html=1;entryX=1;entryY=0.5;entryDx=0;entryDy=0;" edge="1" parent="xr6JuNUHZO95qO_lHV2o-1" source="kidmjEK7hoNwNIoEuFBd-1" target="xr6JuNUHZO95qO_lHV2o-21">
          <mxGeometry relative="1" as="geometry" />
        </mxCell>
        <mxCell id="kidmjEK7hoNwNIoEuFBd-1" value="Prompt instructions for beginner and intermediate prompt" style="shape=card;whiteSpace=wrap;html=1;" vertex="1" parent="xr6JuNUHZO95qO_lHV2o-1">
          <mxGeometry x="390" y="170" width="80" height="100" as="geometry" />
        </mxCell>
      </root>
    </mxGraphModel>
  </diagram>
</mxfile>
